<?xml version="1.0" encoding="UTF-8" standalone="no"?><!DOCTYPE svg PUBLIC "-//W3C//DTD SVG 1.1//EN" "http://www.w3.org/Graphics/SVG/1.1/DTD/svg11.dtd"><!-- Generated by graphviz version 2.40.1 (20161225.0304)
 --><!-- Title: strategy Pages: 1 --><svg xmlns="http://www.w3.org/2000/svg" xmlns:xlink="http://www.w3.org/1999/xlink" width="508pt" height="246pt" viewBox="0.00 0.00 507.96 246.00">
<g id="graph0" class="graph" transform="scale(1 1) rotate(0) translate(4 242)">
<title>strategy</title>
<polygon fill="#ffffff" stroke="transparent" points="-4,4 -4,-242 503.9608,-242 503.9608,4 -4,4"/>
<!-- A -->
<g id="node1" class="node">
<title>A</title>
<polygon fill="#1be4e3" stroke="#000000" points="54,-140 0,-140 0,-104 54,-104 54,-140"/>
<text text-anchor="middle" x="27" y="-117.8" font-family="Times,serif" font-size="14.00" fill="#000000">A</text>
</g>
<!-- B -->
<g id="node2" class="node">
<title>B</title>
<polygon fill="#ffffff" stroke="#000000" points="54,-202 0,-202 0,-166 54,-166 54,-202"/>
<text text-anchor="middle" x="27" y="-179.8" font-family="Times,serif" font-size="14.00" fill="#000000">B</text>
</g>
<!-- C -->
<g id="node3" class="node">
<title>C</title>
<polygon fill="#1be4e3" stroke="#000000" points="54,-77 0,-77 0,-41 54,-41 54,-77"/>
<text text-anchor="middle" x="27" y="-54.8" font-family="Times,serif" font-size="14.00" fill="#000000">C</text>
</g>
<!-- D -->
<g id="node4" class="node">
<title>D</title>
<polygon fill="#9fff00" stroke="#000000" points="145,-195 91,-195 91,-159 145,-159 145,-195"/>
<text text-anchor="middle" x="118" y="-172.8" font-family="Times,serif" font-size="14.00" fill="#000000">D</text>
</g>
<!-- D&#45;&gt;A -->
<g id="edge1" class="edge">
<title>D-&gt;A</title>
<path fill="none" stroke="#0000ff" stroke-dasharray="5,2" d="M90.697,-160.4982C81.9688,-155.2229 72.171,-149.3012 62.9256,-143.7133"/>
<polygon fill="#0000ff" stroke="#0000ff" points="64.6525,-140.6674 54.2837,-138.4902 61.0316,-146.6582 64.6525,-140.6674"/>
</g>
<!-- D&#45;&gt;B -->
<g id="edge2" class="edge">
<title>D-&gt;B</title>
<path fill="none" stroke="#000000" d="M90.697,-179.1002C82.4187,-179.737 73.1783,-180.4478 64.3595,-181.1262"/>
<polygon fill="#000000" stroke="#000000" points="63.9858,-177.6445 54.2837,-181.9013 64.5227,-184.6239 63.9858,-177.6445"/>
</g>
<!-- E -->
<g id="node5" class="node">
<title>E</title>
<polygon fill="#9fff00" stroke="#000000" points="145,-140 91,-140 91,-104 145,-104 145,-140"/>
<text text-anchor="middle" x="118" y="-117.8" font-family="Times,serif" font-size="14.00" fill="#000000">E</text>
</g>
<!-- E&#45;&gt;B -->
<g id="edge3" class="edge">
<title>E-&gt;B</title>
<path fill="none" stroke="#000000" d="M91.1892,-140.2667C82.0251,-146.5104 71.6367,-153.5882 61.9281,-160.2028"/>
<polygon fill="#000000" stroke="#000000" points="59.9127,-157.3408 53.6192,-165.8639 63.8541,-163.1257 59.9127,-157.3408"/>
</g>
<!-- E&#45;&gt;C -->
<g id="edge4" class="edge">
<title>E-&gt;C</title>
<path fill="none" stroke="#0000ff" stroke-dasharray="5,2" d="M91.679,-103.7778C82.3412,-97.3132 71.6843,-89.9353 61.7522,-83.0592"/>
<polygon fill="#0000ff" stroke="#0000ff" points="63.476,-79.9957 53.2618,-77.1813 59.4915,-85.7511 63.476,-79.9957"/>
</g>
<!-- F -->
<g id="node6" class="node">
<title>F</title>
<polygon fill="#ffffff" stroke="#000000" points="145,-85 91,-85 91,-49 145,-49 145,-85"/>
<text text-anchor="middle" x="118" y="-62.8" font-family="Times,serif" font-size="14.00" fill="#000000">F</text>
</g>
<!-- F&#45;&gt;A -->
<g id="edge5" class="edge">
<title>F-&gt;A</title>
<path fill="none" stroke="#000000" d="M90.697,-83.5018C81.9688,-88.7771 72.171,-94.6988 62.9256,-100.2867"/>
<polygon fill="#000000" stroke="#000000" points="61.0316,-97.3418 54.2837,-105.5098 64.6525,-103.3326 61.0316,-97.3418"/>
</g>
<!-- F&#45;&gt;C -->
<g id="edge6" class="edge">
<title>F-&gt;C</title>
<path fill="none" stroke="#0000ff" stroke-dasharray="5,2" d="M90.697,-64.5997C82.4187,-63.872 73.1783,-63.0596 64.3595,-62.2844"/>
<polygon fill="#0000ff" stroke="#0000ff" points="64.5519,-58.7879 54.2837,-61.3986 63.9388,-65.761 64.5519,-58.7879"/>
</g>
<!-- G -->
<g id="node7" class="node">
<title>G</title>
<polygon fill="#1be4e3" stroke="#000000" points="276.9804,-238 222.9804,-238 222.9804,-202 276.9804,-202 276.9804,-238"/>
<text text-anchor="middle" x="249.9804" y="-215.8" font-family="Times,serif" font-size="14.00" fill="#000000">G</text>
</g>
<!-- G&#45;&gt;B -->
<g id="edge8" class="edge">
<title>G-&gt;B</title>
<path fill="none" stroke="#0000ff" stroke-dasharray="5,2" d="M222.8757,-220.068C205.6786,-219.8635 182.982,-219.1373 163,-217 130.667,-213.5417 122.5795,-211.7534 91,-204 82.1289,-201.822 72.6831,-199.1001 63.8484,-196.3724"/>
<polygon fill="#0000ff" stroke="#0000ff" points="64.7865,-192.9982 54.1965,-193.3189 62.6751,-199.6722 64.7865,-192.9982"/>
<text text-anchor="middle" x="118" y="-218.2" font-family="Times,serif" font-size="14.00" fill="#000000">parent2</text>
</g>
<!-- G&#45;&gt;D -->
<g id="edge7" class="edge">
<title>G-&gt;D</title>
<path fill="none" stroke="#000000" d="M222.6435,-207.1721C216.8754,-204.6921 210.779,-202.2354 204.9804,-200.2 188.8917,-194.5525 170.7182,-189.505 155.1591,-185.5717"/>
<polygon fill="#000000" stroke="#000000" points="155.9077,-182.1515 145.3603,-183.1528 154.23,-188.9475 155.9077,-182.1515"/>
<text text-anchor="middle" x="183.9902" y="-204.2" font-family="Times,serif" font-size="14.00" fill="#000000">parent1</text>
</g>
<!-- H -->
<g id="node8" class="node">
<title>H</title>
<polygon fill="#ffffff" stroke="#000000" points="276.9804,-130 222.9804,-130 222.9804,-94 276.9804,-94 276.9804,-130"/>
<text text-anchor="middle" x="249.9804" y="-107.8" font-family="Times,serif" font-size="14.00" fill="#000000">H</text>
</g>
<!-- H&#45;&gt;E -->
<g id="edge9" class="edge">
<title>H-&gt;E</title>
<path fill="none" stroke="#000000" d="M222.9537,-114.0478C203.5107,-115.521 177.0371,-117.5268 155.5431,-119.1554"/>
<polygon fill="#000000" stroke="#000000" points="155.151,-115.675 145.4441,-119.9206 155.68,-122.655 155.151,-115.675"/>
</g>
<!-- H&#45;&gt;F -->
<g id="edge10" class="edge">
<title>H-&gt;F</title>
<path fill="none" stroke="#0000ff" stroke-dasharray="5,2" d="M222.9537,-102.785C203.334,-96.0954 176.5552,-86.965 154.9581,-79.6012"/>
<polygon fill="#0000ff" stroke="#0000ff" points="156.0386,-76.2718 145.4441,-76.3573 153.7795,-82.8973 156.0386,-76.2718"/>
</g>
<!-- I -->
<g id="node9" class="node">
<title>I</title>
<polygon fill="#ffffff" stroke="#000000" points="367.9804,-77 313.9804,-77 313.9804,-41 367.9804,-41 367.9804,-77"/>
<text text-anchor="middle" x="340.9804" y="-54.8" font-family="Times,serif" font-size="14.00" fill="#000000">I</text>
</g>
<!-- I&#45;&gt;F -->
<g id="edge11" class="edge">
<title>I-&gt;F</title>
<path fill="none" stroke="#000000" d="M313.6386,-59.981C273.9113,-61.4063 200.104,-64.0543 155.3795,-65.6589"/>
<polygon fill="#000000" stroke="#000000" points="155.0843,-62.1672 145.2163,-66.0235 155.3354,-69.1627 155.0843,-62.1672"/>
</g>
<!-- L -->
<g id="node12" class="node">
<title>L</title>
<polygon fill="#ffffff" stroke="#000000" points="276.9804,-36 222.9804,-36 222.9804,0 276.9804,0 276.9804,-36"/>
<text text-anchor="middle" x="249.9804" y="-13.8" font-family="Times,serif" font-size="14.00" fill="#000000">L</text>
</g>
<!-- I&#45;&gt;L -->
<g id="edge12" class="edge">
<title>I-&gt;L</title>
<path fill="none" stroke="#0000ff" stroke-dasharray="5,2" d="M313.6774,-46.6986C305.1292,-42.8472 295.555,-38.5336 286.4786,-34.4442"/>
<polygon fill="#0000ff" stroke="#0000ff" points="287.8192,-31.2095 277.2641,-30.2927 284.9437,-37.5916 287.8192,-31.2095"/>
</g>
<!-- J -->
<g id="node10" class="node">
<title>J</title>
<polygon fill="#9fff00" stroke="#000000" points="367.9804,-184 313.9804,-184 313.9804,-148 367.9804,-148 367.9804,-184"/>
<text text-anchor="middle" x="340.9804" y="-161.8" font-family="Times,serif" font-size="14.00" fill="#000000">J</text>
</g>
<!-- J&#45;&gt;H -->
<g id="edge17" class="edge">
<title>J-&gt;H</title>
<path fill="none" stroke="#0000ff" stroke-dasharray="5,2" d="M313.6774,-149.7982C304.9492,-144.6189 295.1514,-138.8048 285.906,-133.3185"/>
<polygon fill="#0000ff" stroke="#0000ff" points="287.6501,-130.2836 277.2641,-128.1903 284.0779,-136.3035 287.6501,-130.2836"/>
</g>
<!-- K -->
<g id="node11" class="node">
<title>K</title>
<polygon fill="#9fff00" stroke="#000000" points="276.9804,-184 222.9804,-184 222.9804,-148 276.9804,-148 276.9804,-184"/>
<text text-anchor="middle" x="249.9804" y="-161.8" font-family="Times,serif" font-size="14.00" fill="#000000">K</text>
</g>
<!-- J&#45;&gt;K -->
<g id="edge18" class="edge">
<title>J-&gt;K</title>
<path fill="none" stroke="#000000" d="M313.6774,-166C305.3991,-166 296.1587,-166 287.3399,-166"/>
<polygon fill="#000000" stroke="#000000" points="287.2642,-162.5001 277.2641,-166 287.2641,-169.5001 287.2642,-162.5001"/>
</g>
<!-- K&#45;&gt;E -->
<g id="edge16" class="edge">
<title>K-&gt;E</title>
<path fill="none" stroke="#000000" d="M222.9374,-164.6269C205.3599,-163.0207 182.2226,-159.5398 163,-152 158.5366,-150.2493 154.0634,-148.0034 149.7619,-145.5296"/>
<polygon fill="#000000" stroke="#000000" points="151.5705,-142.5327 141.2318,-140.2171 147.8699,-148.4746 151.5705,-142.5327"/>
</g>
<!-- K&#45;&gt;F -->
<g id="edge15" class="edge">
<title>K-&gt;F</title>
<path fill="none" stroke="#0000ff" stroke-dasharray="5,2" d="M224.2439,-147.8486C206.8049,-135.43 183.3233,-118.4754 163,-103 158.2066,-99.3501 153.1784,-95.4253 148.291,-91.5569"/>
<polygon fill="#0000ff" stroke="#0000ff" points="150.2662,-88.6555 140.2651,-85.1585 145.9026,-94.129 150.2662,-88.6555"/>
</g>
<!-- L&#45;&gt;C -->
<g id="edge14" class="edge">
<title>L-&gt;C</title>
<path fill="none" stroke="#000000" d="M222.7573,-20.5029C190.9222,-23.7207 136.7528,-30.1023 91,-40 82.1108,-41.923 72.6579,-44.4523 63.8222,-47.0354"/>
<polygon fill="#000000" stroke="#000000" points="62.7353,-43.7075 54.1715,-49.9454 64.7561,-50.4094 62.7353,-43.7075"/>
</g>
<!-- L&#45;&gt;F -->
<g id="edge13" class="edge">
<title>L-&gt;F</title>
<path fill="none" stroke="#0000ff" stroke-dasharray="5,2" d="M222.9537,-28.0341C203.334,-35.3183 176.5552,-45.2604 154.9581,-53.2787"/>
<polygon fill="#0000ff" stroke="#0000ff" points="153.6006,-50.0491 145.4441,-56.8109 156.0371,-56.6115 153.6006,-50.0491"/>
</g>
<!-- M1 -->
<g id="node13" class="node">
<title>M1</title>
<polygon fill="#fff100" stroke="#000000" points="499.9608,-131 445.9608,-131 445.9608,-95 499.9608,-95 499.9608,-131"/>
<text text-anchor="middle" x="472.9608" y="-108.8" font-family="Times,serif" font-size="14.00" fill="#000000">M1</text>
</g>
<!-- M1&#45;&gt;G -->
<g id="edge20" class="edge">
<title>M1-&gt;G</title>
<path fill="none" stroke="#000000" d="M461.6183,-131.0612C453.4525,-142.8644 441.5181,-157.9062 427.9608,-168 386.0678,-199.1903 325.7869,-211.7322 287.2528,-216.7353"/>
<polygon fill="#000000" stroke="#000000" points="286.5107,-213.2988 276.9942,-217.9557 287.3377,-220.2498 286.5107,-213.2988"/>
<text text-anchor="middle" x="340.9804" y="-216.2" font-family="Times,serif" font-size="14.00" fill="#000000">parent1</text>
</g>
<!-- M1&#45;&gt;H -->
<g id="edge21" class="edge">
<title>M1-&gt;H</title>
<path fill="none" stroke="#ff0000" stroke-dasharray="5,2" d="M445.619,-112.8774C405.8917,-112.6992 332.0844,-112.3682 287.3599,-112.1676"/>
<polygon fill="#ff0000" stroke="#ff0000" points="287.2123,-108.667 277.1967,-112.1221 287.1809,-115.667 287.2123,-108.667"/>
<text text-anchor="middle" x="340.9804" y="-116.2" font-family="Times,serif" font-size="14.00" fill="#000000">parent3</text>
</g>
<!-- M1&#45;&gt;I -->
<g id="edge19" class="edge">
<title>M1-&gt;I</title>
<path fill="none" stroke="#a020f0" stroke-dasharray="5,2" d="M449.5726,-94.7867C442.8662,-90.1879 435.3599,-85.5973 427.9608,-82.2 412.232,-74.9782 393.8345,-69.663 378.0207,-65.9564"/>
<polygon fill="#a020f0" stroke="#a020f0" points="378.5761,-62.4946 368.0558,-63.749 377.0622,-69.329 378.5761,-62.4946"/>
<text text-anchor="middle" x="406.9706" y="-86.2" font-family="Times,serif" font-size="14.00" fill="#000000">parent4</text>
</g>
<!-- M1&#45;&gt;J -->
<g id="edge22" class="edge">
<title>M1-&gt;J</title>
<path fill="none" stroke="#0000ff" stroke-dasharray="5,2" d="M445.9341,-123.8532C426.3144,-131.732 399.5356,-142.4857 377.9385,-151.1586"/>
<polygon fill="#0000ff" stroke="#0000ff" points="376.3999,-148.0047 368.4245,-154.9791 379.0085,-154.5005 376.3999,-148.0047"/>
<text text-anchor="middle" x="406.9706" y="-151.2" font-family="Times,serif" font-size="14.00" fill="#000000">parent2</text>
</g>
<!-- M1&#45;&gt;L -->
<g id="edge23" class="edge">
<title>M1-&gt;L</title>
<path fill="none" stroke="#a52a2a" stroke-dasharray="5,2" d="M461.0289,-94.9658C443.8514,-70.9356 409.598,-29.7548 367.9804,-15.2 342.032,-6.1251 310.8763,-7.3299 287.096,-10.5328"/>
<polygon fill="#a52a2a" stroke="#a52a2a" points="286.4239,-7.0947 277.0642,-12.0591 287.4769,-14.015 286.4239,-7.0947"/>
<text text-anchor="middle" x="340.9804" y="-20.2" font-family="Times,serif" font-size="14.00" fill="#000000">parent5</text>
</g>
</g>
</svg>